<svg width="214" height="260" viewBox="0 0 214 260" fill="none" xmlns="http://www.w3.org/2000/svg">
<rect x="89.6765" y="4.5" width="113.318" height="211.173" rx="27.5" stroke="black" stroke-width="9"/>
<circle cx="124.318" cy="73.391" r="4.89273" fill="black"/>
<circle cx="168.353" cy="73.391" r="4.89273" fill="black"/>
<path d="M136.55 90.5156H170.799" stroke="black" stroke-width="9" stroke-linecap="round"/>
<path d="M124.318 216.28L109.64 255.422" stroke="black" stroke-width="9" stroke-linecap="round"/>
<path d="M163.46 216.28L178.139 255.422" stroke="black" stroke-width="9" stroke-linecap="round"/>
<path d="M1.09508 26.9633C3.32522 23.1492 8.22529 21.865 12.0394 24.0952C21.4445 29.5945 27.7664 35.9669 32.2123 42.9272C36.5867 49.7757 38.9294 56.8737 40.7757 63.3285C44.5838 76.6418 46.4897 86.8589 56.4203 96.0043C65.2912 104.174 72.1435 107.725 77.6664 109.381C83.2915 111.068 88.0915 111 94.0013 111C94.015 111 94.0287 111.001 94.0423 111.001H205.105C209.523 111.002 213.105 114.583 213.105 119.001C213.105 123.419 209.523 127.001 205.105 127.001H92.9222C92.3873 127.002 91.839 127.003 91.2777 127.001H89.0013C88.7305 127.001 88.4625 126.987 88.1986 126.96C83.7633 126.841 78.6675 126.386 73.0697 124.707C64.7372 122.208 55.8222 117.204 45.5824 107.774C31.6247 94.92 28.7514 79.4705 25.3929 67.7289C23.656 61.6565 21.8184 56.3789 18.7279 51.5405C15.7086 46.8136 11.2799 42.1859 3.96324 37.9077C0.149182 35.6775 -1.13491 30.7774 1.09508 26.9633Z" fill="#F5A500"/>
</svg>
