<svg width="214" height="260" viewBox="0 0 214 260" fill="none" xmlns="http://www.w3.org/2000/svg">
<rect x="88.6777" y="4.5" width="113.318" height="211.173" rx="27.5" stroke="black" stroke-width="9"/>
<path d="M123.319 216.28L108.641 255.422" stroke="black" stroke-width="9" stroke-linecap="round"/>
<path d="M162.462 216.28L177.14 255.422" stroke="black" stroke-width="9" stroke-linecap="round"/>
<path d="M1.09502 26.9631C3.3251 23.1492 8.22535 21.8652 12.0394 24.0949C21.4444 29.5941 27.7663 35.9667 32.2122 42.9269C36.5867 49.7754 38.9294 56.8735 40.7757 63.3283C44.5837 76.6415 46.4899 86.8587 56.4202 96.0041C65.291 104.173 72.1435 107.725 77.6663 109.381C83.2914 111.068 88.0915 111 94.0013 111C94.0135 111 94.0262 111.001 94.0384 111.001H205.105C209.523 111.001 213.105 114.583 213.105 119.001C213.105 123.419 209.523 127.001 205.105 127.001H93.2825C92.5753 127.002 91.8438 127.004 91.0892 127.001H89.0013C88.7306 127.001 88.4632 126.987 88.1995 126.961C83.764 126.841 78.6677 126.386 73.0696 124.707C64.7372 122.208 55.822 117.203 45.5823 107.774C31.6249 94.9197 28.7513 79.4702 25.3929 67.7287C23.6559 61.6563 21.8184 56.3787 18.7278 51.5402C15.7085 46.8135 11.2798 42.1855 3.96318 37.9074C0.149458 35.6771 -1.135 30.777 1.09502 26.9631Z" fill="#F5A500"/>
<circle cx="179.668" cy="68.4983" r="4.89273" fill="black"/>
<path d="M184.561 88.0692H199.239" stroke="black" stroke-width="9" stroke-linecap="round"/>
</svg>
