<svg width="214" height="260" viewBox="0 0 214 260" fill="none" xmlns="http://www.w3.org/2000/svg">
<rect x="88.6775" y="4.5" width="113.318" height="211.173" rx="27.5" stroke="black" stroke-width="9"/>
<path d="M135 255.28V216.28" stroke="black" stroke-width="9" stroke-linecap="round"/>
<path d="M155 255.28V216.28" stroke="black" stroke-width="9" stroke-linecap="round"/>
<path d="M1.09512 26.9635C3.32525 23.1494 8.22535 21.8652 12.0395 24.0953C21.4447 29.5946 27.7664 35.967 32.2123 42.9273C36.5869 49.776 38.9294 56.8738 40.7758 63.3287C44.5839 76.6421 46.4897 86.859 56.4203 96.0045C65.2914 104.174 72.1435 107.725 77.6664 109.381C83.2916 111.068 88.0915 111.001 94.0014 111.001C94.0137 111.001 94.0261 111.001 94.0385 111.002H205.105C209.523 111.002 213.105 114.583 213.105 119.002C213.105 123.42 209.523 127.002 205.105 127.002H93.2826C92.5754 127.003 91.8439 127.004 91.0893 127.002H89.0014C88.7311 127.002 88.464 126.988 88.2006 126.962C83.7648 126.842 78.6684 126.387 73.0697 124.708C64.7372 122.209 55.8223 117.204 45.5824 107.774C31.6246 94.92 28.7515 79.4707 25.393 67.7291C23.656 61.6565 21.8186 56.3792 18.7279 51.5406C15.7086 46.8137 11.2802 42.186 3.96329 37.9078C0.149243 35.6776 -1.13497 30.7776 1.09512 26.9635Z" fill="#F5A500"/>
<circle cx="179.668" cy="68.4983" r="4.89273" fill="black"/>
<path d="M184.56 88.0692H199.239" stroke="black" stroke-width="9" stroke-linecap="round"/>
</svg>
